<?xml version="1.0" standalone="no"?>
<!DOCTYPE svg PUBLIC "-//W3C//DTD SVG 20010904//EN"
 "http://www.w3.org/TR/2001/REC-SVG-20010904/DTD/svg10.dtd">
<svg version="1.0" xmlns="http://www.w3.org/2000/svg"
 width="128.000000pt" height="128.000000pt" viewBox="0 0 128.000000 128.000000"
 preserveAspectRatio="xMidYMid meet">
<metadata>
Created by potrace 1.11, written by Peter Selinger 2001-2013
</metadata>
<g transform="translate(0.000000,128.000000) scale(0.100000,-0.100000)"
fill="#000000" stroke="none">
<path d="M310 1077 l0 -115 161 -86 c88 -48 164 -88 168 -89 3 -1 82 38 174
87 l167 89 0 114 0 114 -127 -67 c-71 -38 -146 -78 -168 -91 l-40 -22 -85 46
c-47 25 -122 66 -167 90 l-83 45 0 -115z"/>
<path d="M113 747 c-51 -28 -93 -54 -93 -57 0 -4 70 -51 155 -106 l154 -99 1
-187 0 -186 98 53 97 53 2 188 2 189 -155 100 c-85 55 -158 101 -162 101 -4 1
-49 -21 -99 -49z"/>
<path d="M898 697 l-158 -102 3 -189 2 -188 98 -53 97 -53 1 186 0 187 155
100 c85 55 154 102 154 106 0 4 -163 95 -190 106 -3 1 -76 -44 -162 -100z"/>
</g>
</svg>
